<svg width="1024" height="1024" viewBox="0 0 1024 1024" fill="none" xmlns="http://www.w3.org/2000/svg">
  <defs>
    <linearGradient id="bgGrad" x1="512" y1="100" x2="512" y2="924" gradientUnits="userSpaceOnUse">
      <stop stop-color="#A8A29E"/>
      <stop offset="1" stop-color="#57534E"/>
    </linearGradient>
    <linearGradient id="sGradFill" x1="512" y1="-76" x2="512" y2="858" gradientUnits="userSpaceOnUse">
      <stop stop-color="white" stop-opacity="0.2"/>
      <stop offset="0.706731" stop-color="white"/>
    </linearGradient>
    <linearGradient id="sGradStroke" x1="512" y1="166" x2="512" y2="858" gradientUnits="userSpaceOnUse">
      <stop stop-color="white" stop-opacity="0.24"/>
      <stop offset="1" stop-color="#D4D0CE" stop-opacity="0.64"/>
    </linearGradient>
    <filter id="sShadow" x="213" y="165" width="597" height="697" filterUnits="userSpaceOnUse" color-interpolation-filters="sRGB">
      <feFlood flood-opacity="0" result="BackgroundImageFix"/>
      <feColorMatrix in="SourceAlpha" type="matrix" values="0 0 0 0 0 0 0 0 0 0 0 0 0 0 0 0 0 0 127 0" result="hardAlpha"/>
      <feOffset dy="1"/>
      <feGaussianBlur stdDeviation="1"/>
      <feColorMatrix type="matrix" values="0 0 0 0 0.0470588 0 0 0 0 0.0392157 0 0 0 0 0.0352941 0 0 0 0.05 0"/>
      <feBlend mode="normal" in2="BackgroundImageFix" result="effect1_dropShadow"/>
      <feBlend mode="normal" in="SourceGraphic" in2="effect1_dropShadow" result="shape"/>
      <feColorMatrix in="SourceAlpha" type="matrix" values="0 0 0 0 0 0 0 0 0 0 0 0 0 0 0 0 0 0 127 0" result="hardAlpha"/>
      <feOffset dy="4"/>
      <feGaussianBlur stdDeviation="10.4"/>
      <feComposite in2="hardAlpha" operator="arithmetic" k2="-1" k3="1"/>
      <feColorMatrix type="matrix" values="0 0 0 0 1 0 0 0 0 1 0 0 0 0 1 0 0 0 0.4 0"/>
      <feBlend mode="normal" in2="shape" result="effect2_innerShadow"/>
    </filter>
    <filter id="bodyShadow" x="60" y="80" width="904" height="904" filterUnits="userSpaceOnUse" color-interpolation-filters="sRGB">
      <feFlood flood-opacity="0" result="BackgroundImageFix"/>
      <feColorMatrix in="SourceAlpha" type="matrix" values="0 0 0 0 0 0 0 0 0 0 0 0 0 0 0 0 0 0 127 0" result="hardAlpha"/>
      <feOffset dy="20"/>
      <feGaussianBlur stdDeviation="20"/>
      <feColorMatrix type="matrix" values="0 0 0 0 0 0 0 0 0 0 0 0 0 0 0 0 0 0 0.25 0"/>
      <feBlend mode="normal" in2="BackgroundImageFix" result="dropShadow"/>
      <feBlend mode="normal" in="SourceGraphic" in2="dropShadow" result="shape"/>
    </filter>
    <clipPath id="squircle">
      <path d="M512,100 C357.85,100 280.78,100 224.27,121.49 C175.81,139.85 139.85,175.81 121.49,224.27 C100,280.78 100,357.85 100,512 C100,666.15 100,743.22 121.49,799.73 C139.85,848.19 175.81,884.15 224.27,902.51 C280.78,924 357.85,924 512,924 C666.15,924 743.22,924 799.73,902.51 C848.19,884.15 884.15,848.19 902.51,799.73 C924,743.22 924,666.15 924,512 C924,357.85 924,280.78 902.51,224.27 C884.15,175.81 848.19,139.85 799.73,121.49 C743.22,100 666.15,100 512,100 Z"/>
    </clipPath>
  </defs>

  <g filter="url(#bodyShadow)">
    <path d="M512,100 C357.85,100 280.78,100 224.27,121.49 C175.81,139.85 139.85,175.81 121.49,224.27 C100,280.78 100,357.85 100,512 C100,666.15 100,743.22 121.49,799.73 C139.85,848.19 175.81,884.15 224.27,902.51 C280.78,924 357.85,924 512,924 C666.15,924 743.22,924 799.73,902.51 C848.19,884.15 884.15,848.19 902.51,799.73 C924,743.22 924,666.15 924,512 C924,357.85 924,280.78 902.51,224.27 C884.15,175.81 848.19,139.85 799.73,121.49 C743.22,100 666.15,100 512,100 Z" fill="url(#bgGrad)"/>
  </g>

  <g clip-path="url(#squircle)">
    <g filter="url(#sShadow)" transform="translate(102.4 102.4) scale(0.8)">
      <path d="M684.459 244.387C684.459 250.942 687.062 257.228 691.696 261.863L712.16 282.332C716.794 286.967 723.078 289.57 729.631 289.57H783.292C796.938 289.57 808 300.635 808 314.285V388.426C808 402.076 796.938 413.141 783.292 413.141H709.167C695.521 413.141 684.459 402.076 684.459 388.426V334.753C684.459 328.199 681.856 321.913 677.222 317.278L656.758 296.809C652.124 292.174 645.84 289.57 639.287 289.57H383.717C377.165 289.57 370.881 292.174 366.247 296.808L345.779 317.278C341.145 321.913 338.541 328.199 338.541 334.755V405.029C338.541 411.584 341.144 417.87 345.778 422.505L366.242 442.974C370.876 447.609 377.16 450.212 383.713 450.212H659.751C673.397 450.212 684.459 461.277 684.459 474.927V528.601C684.459 535.155 687.062 541.44 691.695 546.075L712.16 566.548C716.793 571.183 723.079 573.788 729.632 573.788H783.292C796.938 573.788 808 584.853 808 598.502V709.715C808 723.365 796.938 734.43 783.292 734.43H729.631C723.078 734.43 716.794 737.033 712.16 741.668L691.696 762.137C687.062 766.772 684.459 773.058 684.459 779.613V833.286C684.459 846.935 673.397 858 659.751 858H363.249C349.603 858 338.541 846.935 338.541 833.286V779.613C338.541 773.058 335.938 766.772 331.304 762.137L310.84 741.668C306.206 737.033 299.922 734.43 293.369 734.43H239.708C226.062 734.43 215 723.365 215 709.715V635.574C215 621.924 226.062 610.859 239.708 610.859H313.833C327.479 610.859 338.541 621.924 338.541 635.574V689.242C338.541 695.796 341.144 702.082 345.778 706.717L366.247 727.191C370.881 731.826 377.165 734.43 383.718 734.43H639.286C645.839 734.43 652.124 731.825 656.758 727.19L677.223 706.717C681.856 702.082 684.459 695.797 684.459 689.243V618.971C684.459 612.416 681.856 606.13 677.222 601.495L656.758 581.026C652.124 576.391 645.84 573.788 639.287 573.788H363.249C349.603 573.788 338.541 562.723 338.541 549.073V495.395C338.541 488.841 335.938 482.555 331.304 477.92L310.84 457.451C306.206 452.816 299.922 450.212 293.369 450.212H239.708C226.062 450.212 215 439.147 215 425.498V314.285C215 300.635 226.062 289.57 239.708 289.57H293.369C299.922 289.57 306.206 286.967 310.84 282.332L331.304 261.863C335.938 257.228 338.541 250.942 338.541 244.387V190.714C338.541 177.065 349.603 166 363.249 166H659.751C673.397 166 684.459 177.065 684.459 190.714V244.387Z" fill="url(#sGradFill)"/>
      <path d="M363.249 168H659.751C672.292 168 682.459 178.169 682.459 190.714V244.388C682.459 251.472 685.273 258.268 690.281 263.277L710.745 283.746C715.754 288.756 722.547 291.57 729.631 291.57H783.292C795.833 291.571 806 301.739 806 314.284V388.427C806 400.972 795.833 411.14 783.292 411.141H709.167C696.626 411.14 686.459 400.972 686.459 388.427V334.754C686.459 327.669 683.645 320.874 678.637 315.864L658.173 295.395C653.164 290.385 646.37 287.57 639.286 287.57H383.718C376.635 287.57 369.842 290.384 364.833 295.394L344.365 315.863C339.356 320.873 336.541 327.669 336.541 334.755V405.029C336.541 412.114 339.355 418.909 344.363 423.919L364.827 444.388C369.836 449.398 376.63 452.212 383.714 452.212H659.751C672.292 452.212 682.459 462.382 682.459 474.927V528.601C682.459 535.685 685.272 542.479 690.28 547.489L710.745 567.962C715.754 572.973 722.549 575.788 729.633 575.788H783.292C795.833 575.788 806 585.957 806 598.502V709.716C806 722.261 795.833 732.429 783.292 732.43H729.631C722.547 732.43 715.754 735.244 710.745 740.254L690.281 760.723C685.273 765.732 682.459 772.528 682.459 779.612V833.286C682.459 845.831 672.292 856 659.751 856H363.249C350.708 856 340.541 845.831 340.541 833.286V779.612C340.541 772.528 337.727 765.732 332.719 760.723L312.255 740.254C307.246 735.244 300.452 732.43 293.368 732.43H239.708C227.167 732.429 217 722.261 217 709.716V635.573C217 623.028 227.167 612.86 239.708 612.859H313.833C326.374 612.86 336.541 623.028 336.541 635.573V689.241C336.541 696.326 339.355 703.121 344.363 708.131L364.833 728.605C369.842 733.615 376.635 736.43 383.719 736.43H639.285C646.369 736.43 653.164 733.614 658.173 728.604L678.638 708.131C683.646 703.121 686.459 696.326 686.459 689.242V618.971C686.459 611.886 683.645 605.091 678.637 600.081L658.173 579.612C653.164 574.602 646.37 571.788 639.286 571.788H363.249C350.708 571.788 340.541 561.618 340.541 549.073V495.396C340.541 488.311 337.727 481.516 332.719 476.506L312.255 456.037C307.246 451.027 300.452 448.212 293.368 448.212H239.708C227.167 448.212 217 438.043 217 425.498V314.284C217 301.739 227.167 291.571 239.708 291.57H293.368C300.452 291.57 307.246 288.756 312.255 283.746L332.719 263.277C337.727 258.268 340.541 251.472 340.541 244.388V190.714C340.541 178.169 350.708 168 363.249 168Z" stroke="url(#sGradStroke)" stroke-width="4"/>
    </g>
  </g>
</svg>
