<svg width="561" height="561" viewBox="231.67 231.67 560.66 560.66" fill="none" xmlns="http://www.w3.org/2000/svg">
  <!-- The June logo mark from june-app-icon.svg (the two logoFill paths,
       same group transform), flattened to solid black: macOS renders menu
       bar template images from the alpha channel only, so color and the
       squircle background must not be part of this file. Regenerate
       tray-icon-template.png from this source if the mark changes. -->
  <g transform="translate(102.4 102.4) scale(0.8)" fill="black">
    <path d="M783.792 486.971C797.438 486.971 808.5 498.177 808.5 512V587.088C808.5 600.911 797.438 612.117 783.792 612.117H730.128C723.577 612.118 717.292 614.757 712.659 619.45L692.197 640.177C687.564 644.87 684.959 651.237 684.958 657.873V712.234C684.958 726.057 673.896 737.263 660.25 737.263H384.212C377.66 737.264 371.375 739.903 366.742 744.596L346.28 765.323C341.648 770.016 339.043 776.383 339.042 783.02V837.38C339.042 851.203 327.979 862.409 314.333 862.409H240.208C226.562 862.409 215.5 851.203 215.5 837.38V762.292C215.5 748.469 226.562 737.263 240.208 737.263H293.872C300.423 737.262 306.708 734.623 311.341 729.93L331.803 709.203C336.436 704.51 339.041 698.143 339.042 691.506V637.146C339.042 623.323 350.104 612.117 363.75 612.117H639.788C646.34 612.116 652.625 609.477 657.258 604.784L677.72 584.057C682.352 579.364 684.957 572.997 684.958 566.36V512C684.958 498.177 696.021 486.971 709.667 486.971H783.792Z"/>
    <path d="M783.792 161.591C797.438 161.591 808.5 172.797 808.5 186.62V261.708C808.5 275.531 797.438 286.737 783.792 286.737H730.128C723.577 286.738 717.292 289.377 712.659 294.07L692.197 314.797C687.564 319.49 684.959 325.857 684.958 332.494V386.854C684.958 400.677 673.896 411.883 660.25 411.883H384.212C377.66 411.884 371.375 414.523 366.742 419.216L346.28 439.943C341.648 444.636 339.043 451.003 339.042 457.64V512C339.042 525.823 327.979 537.029 314.333 537.029H240.208C226.562 537.029 215.5 525.823 215.5 512V436.912C215.5 423.089 226.562 411.883 240.208 411.883H293.872C300.423 411.882 306.708 409.243 311.341 404.55L331.803 383.823C336.436 379.13 339.041 372.763 339.042 366.127V311.766C339.042 297.943 350.104 286.737 363.75 286.737H639.788C646.34 286.736 652.625 284.097 657.258 279.404L677.72 258.677C682.352 253.984 684.957 247.617 684.958 240.98V186.62C684.958 172.797 696.021 161.591 709.667 161.591H783.792Z"/>
  </g>
</svg>
