<svg width="1024" height="1024" viewBox="0 0 1024 1024" fill="none" xmlns="http://www.w3.org/2000/svg">
  <defs>
    <linearGradient id="bgGrad" x1="512" y1="100" x2="512" y2="924" gradientUnits="userSpaceOnUse">
      <stop stop-color="#7996af"/>
      <stop offset="1" stop-color="#44647f"/>
    </linearGradient>
    <linearGradient id="logoFill" x1="512" y1="-83.5" x2="512" y2="862.4" gradientUnits="userSpaceOnUse">
      <stop stop-color="white" stop-opacity="0.2"/>
      <stop offset="0.706731" stop-color="white"/>
    </linearGradient>
    <linearGradient id="logoStroke" x1="512" y1="161.6" x2="512" y2="862.4" gradientUnits="userSpaceOnUse">
      <stop stop-color="white" stop-opacity="0.24"/>
      <stop offset="1" stop-color="#D4D0CE" stop-opacity="0.64"/>
    </linearGradient>
    <filter id="logoShadow" x="213.5" y="160.59" width="597" height="705.82" filterUnits="userSpaceOnUse" color-interpolation-filters="sRGB">
      <feFlood flood-opacity="0" result="BackgroundImageFix"/>
      <feColorMatrix in="SourceAlpha" type="matrix" values="0 0 0 0 0 0 0 0 0 0 0 0 0 0 0 0 0 0 127 0" result="hardAlpha"/>
      <feOffset dy="1"/>
      <feGaussianBlur stdDeviation="1"/>
      <feColorMatrix type="matrix" values="0 0 0 0 0.0470588 0 0 0 0 0.0392157 0 0 0 0 0.0352941 0 0 0 0.05 0"/>
      <feBlend mode="normal" in2="BackgroundImageFix" result="effect1_dropShadow"/>
      <feBlend mode="normal" in="SourceGraphic" in2="effect1_dropShadow" result="shape"/>
      <feColorMatrix in="SourceAlpha" type="matrix" values="0 0 0 0 0 0 0 0 0 0 0 0 0 0 0 0 0 0 127 0" result="hardAlpha"/>
      <feOffset dy="4"/>
      <feGaussianBlur stdDeviation="10.4"/>
      <feComposite in2="hardAlpha" operator="arithmetic" k2="-1" k3="1"/>
      <feColorMatrix type="matrix" values="0 0 0 0 1 0 0 0 0 1 0 0 0 0 1 0 0 0 0.4 0"/>
      <feBlend mode="normal" in2="shape" result="effect2_innerShadow"/>
    </filter>
    <filter id="bodyShadow" x="60" y="80" width="904" height="904" filterUnits="userSpaceOnUse" color-interpolation-filters="sRGB">
      <feFlood flood-opacity="0" result="BackgroundImageFix"/>
      <feColorMatrix in="SourceAlpha" type="matrix" values="0 0 0 0 0 0 0 0 0 0 0 0 0 0 0 0 0 0 127 0" result="hardAlpha"/>
      <feOffset dy="20"/>
      <feGaussianBlur stdDeviation="20"/>
      <feColorMatrix type="matrix" values="0 0 0 0 0 0 0 0 0 0 0 0 0 0 0 0 0 0 0.25 0"/>
      <feBlend mode="normal" in2="BackgroundImageFix" result="dropShadow"/>
      <feBlend mode="normal" in="SourceGraphic" in2="dropShadow" result="shape"/>
    </filter>
    <clipPath id="squircle">
      <path d="M512,100 C357.85,100 280.78,100 224.27,121.49 C175.81,139.85 139.85,175.81 121.49,224.27 C100,280.78 100,357.85 100,512 C100,666.15 100,743.22 121.49,799.73 C139.85,848.19 175.81,884.15 224.27,902.51 C280.78,924 357.85,924 512,924 C666.15,924 743.22,924 799.73,902.51 C848.19,884.15 884.15,848.19 902.51,799.73 C924,743.22 924,666.15 924,512 C924,357.85 924,280.78 902.51,224.27 C884.15,175.81 848.19,139.85 799.73,121.49 C743.22,100 666.15,100 512,100 Z"/>
    </clipPath>
  </defs>

  <g filter="url(#bodyShadow)">
    <path d="M512,100 C357.85,100 280.78,100 224.27,121.49 C175.81,139.85 139.85,175.81 121.49,224.27 C100,280.78 100,357.85 100,512 C100,666.15 100,743.22 121.49,799.73 C139.85,848.19 175.81,884.15 224.27,902.51 C280.78,924 357.85,924 512,924 C666.15,924 743.22,924 799.73,902.51 C848.19,884.15 884.15,848.19 902.51,799.73 C924,743.22 924,666.15 924,512 C924,357.85 924,280.78 902.51,224.27 C884.15,175.81 848.19,139.85 799.73,121.49 C743.22,100 666.15,100 512,100 Z" fill="url(#bgGrad)"/>
  </g>

  <g clip-path="url(#squircle)">
    <g filter="url(#logoShadow)" transform="translate(102.4 102.4) scale(0.8)">
      <path d="M783.792 486.971C797.438 486.971 808.5 498.177 808.5 512V587.088C808.5 600.911 797.438 612.117 783.792 612.117H730.128C723.577 612.118 717.292 614.757 712.659 619.45L692.197 640.177C687.564 644.87 684.959 651.237 684.958 657.873V712.234C684.958 726.057 673.896 737.263 660.25 737.263H384.212C377.66 737.264 371.375 739.903 366.742 744.596L346.28 765.323C341.648 770.016 339.043 776.383 339.042 783.02V837.38C339.042 851.203 327.979 862.409 314.333 862.409H240.208C226.562 862.409 215.5 851.203 215.5 837.38V762.292C215.5 748.469 226.562 737.263 240.208 737.263H293.872C300.423 737.262 306.708 734.623 311.341 729.93L331.803 709.203C336.436 704.51 339.041 698.143 339.042 691.506V637.146C339.042 623.323 350.104 612.117 363.75 612.117H639.788C646.34 612.116 652.625 609.477 657.258 604.784L677.72 584.057C682.352 579.364 684.957 572.997 684.958 566.36V512C684.958 498.177 696.021 486.971 709.667 486.971H783.792Z" fill="url(#logoFill)"/>
      <path d="M783.792 161.591C797.438 161.591 808.5 172.797 808.5 186.62V261.708C808.5 275.531 797.438 286.737 783.792 286.737H730.128C723.577 286.738 717.292 289.377 712.659 294.07L692.197 314.797C687.564 319.49 684.959 325.857 684.958 332.494V386.854C684.958 400.677 673.896 411.883 660.25 411.883H384.212C377.66 411.884 371.375 414.523 366.742 419.216L346.28 439.943C341.648 444.636 339.043 451.003 339.042 457.64V512C339.042 525.823 327.979 537.029 314.333 537.029H240.208C226.562 537.029 215.5 525.823 215.5 512V436.912C215.5 423.089 226.562 411.883 240.208 411.883H293.872C300.423 411.882 306.708 409.243 311.341 404.55L331.803 383.823C336.436 379.13 339.041 372.763 339.042 366.127V311.766C339.042 297.943 350.104 286.737 363.75 286.737H639.788C646.34 286.736 652.625 284.097 657.258 279.404L677.72 258.677C682.352 253.984 684.957 247.617 684.958 240.98V186.62C684.958 172.797 696.021 161.591 709.667 161.591H783.792Z" fill="url(#logoFill)"/>
      <path d="M709.667 488.971H783.792C796.309 488.971 806.5 499.257 806.5 512V587.088C806.5 599.831 796.309 610.117 783.792 610.117H730.128C723.037 610.118 716.241 612.974 711.235 618.045L690.773 638.772C685.769 643.841 682.959 650.714 682.958 657.873V712.233C682.958 724.977 672.767 735.263 660.25 735.263H384.211C377.12 735.264 370.324 738.12 365.318 743.191L344.857 763.918C339.853 768.988 337.043 775.861 337.042 783.02V837.38C337.042 850.123 326.85 860.409 314.333 860.409H240.208C227.691 860.409 217.5 850.123 217.5 837.38V762.292L217.508 761.696C217.82 749.23 227.887 739.263 240.208 739.263H293.872C300.963 739.262 307.759 736.406 312.765 731.335L333.227 710.608C338.231 705.538 341.041 698.666 341.042 691.507V637.147C341.042 624.403 351.233 614.117 363.75 614.117H639.789C646.88 614.116 653.676 611.26 658.682 606.19L679.143 585.462C684.147 580.392 686.957 573.52 686.958 566.36V512C686.958 499.257 697.15 488.971 709.667 488.971ZM709.667 163.591H783.792C796.309 163.591 806.5 173.877 806.5 186.62V261.708C806.5 274.451 796.309 284.737 783.792 284.737H730.128C723.037 284.738 716.241 287.595 711.235 292.665L690.773 313.392C685.769 318.461 682.959 325.334 682.958 332.493V386.854C682.958 399.597 672.767 409.883 660.25 409.883H384.211C377.12 409.884 370.324 412.74 365.318 417.811L344.857 438.538C339.853 443.608 337.043 450.481 337.042 457.64V512C337.042 524.743 326.85 535.029 314.333 535.029H240.208C227.691 535.029 217.5 524.743 217.5 512V436.912C217.5 424.169 227.691 413.883 240.208 413.883H293.872C300.963 413.882 307.759 411.026 312.765 405.955L333.227 385.228C338.231 380.158 341.041 373.286 341.042 366.127V311.767C341.042 299.024 351.233 288.737 363.75 288.737H639.789C646.88 288.736 653.676 285.88 658.682 280.81L679.143 260.082C684.147 255.012 686.957 248.14 686.958 240.981V186.62C686.958 173.877 697.15 163.591 709.667 163.591Z" stroke="url(#logoStroke)" stroke-width="4"/>
    </g>
  </g>
</svg>
