<svg width="110" height="18" viewBox="0 0 110 18" fill="none" xmlns="http://www.w3.org/2000/svg">
<g clip-path="url(#clip0_210_452)">
<rect width="29.5" height="18" rx="4" fill="url(#paint0_linear_210_452)"/>
<path d="M11.5 3.58586C11.5 3.71847 11.5527 3.84565 11.6464 3.93942L12.0606 4.35355C12.1544 4.44732 12.2815 4.5 12.4141 4.5H13.5C13.7761 4.5 14 4.72386 14 5V13C14 13.2761 13.7761 13.5 13.5 13.5H12.4141C12.2815 13.5 12.1544 13.5527 12.0606 13.6464L11.6464 14.0606C11.5527 14.1544 11.5 14.2815 11.5 14.4141V15.5C11.5 15.7761 11.2761 16 11 16H5C4.72386 16 4.5 15.7761 4.5 15.5V14.4141C4.5 14.2815 4.44732 14.1544 4.35355 14.0606L3.93942 13.6464C3.84565 13.5527 3.71847 13.5 3.58586 13.5H2.5C2.22386 13.5 2 13.2761 2 13V5C2 4.72386 2.22386 4.5 2.5 4.5H3.58586C3.71847 4.5 3.84565 4.44732 3.93942 4.35355L4.35355 3.93942C4.44732 3.84565 4.5 3.71847 4.5 3.58586V2.5C4.5 2.22386 4.72386 2 5 2H11C11.2761 2 11.5 2.22386 11.5 2.5V3.58586ZM4.64645 5.06058C4.55268 5.15435 4.5 5.28153 4.5 5.41414V12.5859C4.5 12.7185 4.55268 12.8456 4.64645 12.9394L5.06058 13.3536C5.15435 13.4473 5.28153 13.5 5.41414 13.5H10.5859C10.7185 13.5 10.8456 13.4473 10.9394 13.3536L11.3536 12.9394C11.4473 12.8456 11.5 12.7185 11.5 12.5859V5.41414C11.5 5.28153 11.4473 5.15435 11.3536 5.06058L10.9394 4.64645C10.8456 4.55268 10.7185 4.5 10.5859 4.5H5.41414C5.28153 4.5 5.15435 4.55268 5.06058 4.64645L4.64645 5.06058Z" fill="white" style="fill:white;fill-opacity:1;"/>
<path d="M25 3.58586C25 3.71847 25.0527 3.84565 25.1464 3.93942L25.5606 4.35355C25.6544 4.44732 25.7815 4.5 25.9141 4.5H27C27.2761 4.5 27.5 4.72386 27.5 5V6.5C27.5 6.77614 27.2761 7 27 7H25.5C25.2239 7 25 6.77614 25 6.5V5.41414C25 5.28153 24.9473 5.15435 24.8536 5.06058L24.4394 4.64645C24.3456 4.55268 24.2185 4.5 24.0859 4.5H18.9141C18.7815 4.5 18.6544 4.55268 18.5606 4.64645L18.1464 5.06058C18.0527 5.15435 18 5.28153 18 5.41414V6.83586C18 6.96847 18.0527 7.09565 18.1464 7.18942L18.5606 7.60355C18.6544 7.69732 18.7815 7.75 18.9141 7.75H24.5C24.7761 7.75 25 7.97386 25 8.25V9.33586C25 9.46847 25.0527 9.59565 25.1464 9.68942L25.5606 10.1036C25.6544 10.1973 25.7815 10.25 25.9141 10.25H27C27.2761 10.25 27.5 10.4739 27.5 10.75V13C27.5 13.2761 27.2761 13.5 27 13.5H25.9141C25.7815 13.5 25.6544 13.5527 25.5606 13.6464L25.1464 14.0606C25.0527 14.1544 25 14.2815 25 14.4141V15.5C25 15.7761 24.7761 16 24.5 16H18.5C18.2239 16 18 15.7761 18 15.5V14.4141C18 14.2815 17.9473 14.1544 17.8536 14.0606L17.4394 13.6464C17.3456 13.5527 17.2185 13.5 17.0859 13.5H16C15.7239 13.5 15.5 13.2761 15.5 13V11.5C15.5 11.2239 15.7239 11 16 11H17.5C17.7761 11 18 11.2239 18 11.5V12.5859C18 12.7185 18.0527 12.8456 18.1464 12.9394L18.5606 13.3536C18.6544 13.4473 18.7815 13.5 18.9141 13.5H24.0859C24.2185 13.5 24.3456 13.4473 24.4394 13.3536L24.8536 12.9394C24.9473 12.8456 25 12.7185 25 12.5859V11.1641C25 11.0315 24.9473 10.9044 24.8536 10.8106L24.4394 10.3964C24.3456 10.3027 24.2185 10.25 24.0859 10.25H18.5C18.2239 10.25 18 10.0261 18 9.75V8.66414C18 8.53153 17.9473 8.40435 17.8536 8.31058L17.4394 7.89645C17.3456 7.80268 17.2185 7.75 17.0859 7.75H16C15.7239 7.75 15.5 7.52614 15.5 7.25V5C15.5 4.72386 15.7239 4.5 16 4.5H17.0859C17.2185 4.5 17.3456 4.44732 17.4394 4.35355L17.8536 3.93942C17.9473 3.84565 18 3.71847 18 3.58586V2.5C18 2.22386 18.2239 2 18.5 2H24.5C24.7761 2 25 2.22386 25 2.5V3.58586Z" fill="white" style="fill:white;fill-opacity:1;"/>
<path d="M33.512 15.5V2.81H35.384L41.792 12.206V2.81H43.754V15.5H41.882L35.474 6.104V15.5H33.512ZM49.8301 15.752C47.0761 15.752 45.0601 13.754 45.0601 11.054C45.0601 8.354 47.0761 6.356 49.8301 6.356C52.5661 6.356 54.5821 8.354 54.5821 11.054C54.5821 13.754 52.5661 15.752 49.8301 15.752ZM49.8301 14.006C51.4321 14.006 52.6021 12.8 52.6021 11.054C52.6021 9.308 51.4321 8.102 49.8301 8.102C48.2101 8.102 47.0401 9.308 47.0401 11.054C47.0401 12.8 48.2101 14.006 49.8301 14.006ZM59.451 15.5C57.561 15.5 56.571 14.42 56.571 12.53V8.264H54.933V6.608H56.571V3.692H58.479V6.608H60.315V8.264H58.479V12.242C58.479 13.232 58.875 13.7 59.667 13.7H60.315V15.5H59.451ZM65.3835 15.752C62.7195 15.752 60.8115 13.79 60.8115 11.054C60.8115 8.372 62.7555 6.356 65.3655 6.356C67.9395 6.356 69.8655 8.39 69.8655 11.108C69.8655 11.288 69.8475 11.504 69.8295 11.648H62.7735C62.9715 13.178 63.9975 14.132 65.3835 14.132C66.4095 14.132 67.1835 13.61 67.5975 12.872H69.7215C68.9655 14.654 67.3995 15.752 65.3835 15.752ZM62.8095 10.262H67.9035C67.7055 8.858 66.6975 7.922 65.3295 7.922C63.9975 7.922 63.0615 8.786 62.8095 10.262ZM74.5344 15.5C72.6444 15.5 71.6544 14.42 71.6544 12.53V8.264H70.0164V6.608H71.6544V3.692H73.5624V6.608H75.3984V8.264H73.5624V12.242C73.5624 13.232 73.9584 13.7 74.7504 13.7H75.3984V15.5H74.5344ZM79.1839 15.752C77.3119 15.752 75.9619 14.654 75.9619 13.034C75.9619 11.45 77.2579 10.424 79.4359 10.208L81.7939 9.974V9.668C81.7939 8.624 81.1459 7.976 80.0299 7.976C79.1119 7.976 78.4639 8.354 78.1219 9.092H76.0699C76.6099 7.382 78.1219 6.356 80.0839 6.356C82.2439 6.356 83.7019 7.688 83.7019 9.704V12.512C83.7019 13.376 84.1159 13.844 84.8539 13.844H84.9799V15.59H84.4399C83.3779 15.59 82.6579 15.23 82.1899 14.33C81.4699 15.248 80.3179 15.752 79.1839 15.752ZM77.9059 12.998C77.9059 13.718 78.5179 14.222 79.4179 14.222C80.3899 14.222 81.1639 13.844 81.7939 12.944V11.36L79.6699 11.576C78.4639 11.702 77.9059 12.206 77.9059 12.998ZM85.6638 15.5V2.81H87.5718V10.298L91.4778 6.608H93.9798L89.6598 10.604L94.2858 15.5H91.7658L87.5718 11.054V15.5H85.6638ZM98.5211 15.752C95.8571 15.752 93.9491 13.79 93.9491 11.054C93.9491 8.372 95.8931 6.356 98.5031 6.356C101.077 6.356 103.003 8.39 103.003 11.108C103.003 11.288 102.985 11.504 102.967 11.648H95.9111C96.1091 13.178 97.1351 14.132 98.5211 14.132C99.5471 14.132 100.321 13.61 100.735 12.872H102.859C102.103 14.654 100.537 15.752 98.5211 15.752ZM95.9471 10.262H101.041C100.843 8.858 99.8351 7.922 98.4671 7.922C97.1351 7.922 96.1991 8.786 95.9471 10.262ZM104.122 15.5V6.608H105.94V7.904C106.408 7.058 107.326 6.356 108.658 6.356H109.126V8.156H108.658C107.434 8.156 106.57 8.84 106.03 9.866V15.5H104.122Z" fill="#292524" style="fill:#292524;fill:color(display-p3 0.1608 0.1451 0.1412);fill-opacity:1;"/>
</g>
<defs>
<linearGradient id="paint0_linear_210_452" x1="14.75" y1="0" x2="14.75" y2="18" gradientUnits="userSpaceOnUse">
<stop stop-color="#D6D3D1" style="stop-color:#D6D3D1;stop-color:color(display-p3 0.8392 0.8275 0.8196);stop-opacity:1;"/>
<stop offset="1" stop-color="#78716C" style="stop-color:#78716C;stop-color:color(display-p3 0.4706 0.4431 0.4235);stop-opacity:1;"/>
</linearGradient>
<clipPath id="clip0_210_452">
<rect width="110" height="18" fill="white" style="fill:white;fill-opacity:1;"/>
</clipPath>
</defs>
</svg>
