<svg width="84" height="18" viewBox="0 0 84 18" fill="none" xmlns="http://www.w3.org/2000/svg">
<g clip-path="url(#clip0_211_1023)">
<rect width="29.5" height="18" rx="4" fill="url(#paint0_linear_211_1023)"/>
<path d="M11.5 3.58586C11.5 3.71847 11.5527 3.84565 11.6464 3.93942L12.0606 4.35355C12.1544 4.44732 12.2815 4.5 12.4141 4.5H13.5C13.7761 4.5 14 4.72386 14 5V13C14 13.2761 13.7761 13.5 13.5 13.5H12.4141C12.2815 13.5 12.1544 13.5527 12.0606 13.6464L11.6464 14.0606C11.5527 14.1544 11.5 14.2815 11.5 14.4141V15.5C11.5 15.7761 11.2761 16 11 16H5C4.72386 16 4.5 15.7761 4.5 15.5V14.4141C4.5 14.2815 4.44732 14.1544 4.35355 14.0606L3.93942 13.6464C3.84565 13.5527 3.71847 13.5 3.58586 13.5H2.5C2.22386 13.5 2 13.2761 2 13V5C2 4.72386 2.22386 4.5 2.5 4.5H3.58586C3.71847 4.5 3.84565 4.44732 3.93942 4.35355L4.35355 3.93942C4.44732 3.84565 4.5 3.71847 4.5 3.58586V2.5C4.5 2.22386 4.72386 2 5 2H11C11.2761 2 11.5 2.22386 11.5 2.5V3.58586ZM4.64645 5.06058C4.55268 5.15435 4.5 5.28153 4.5 5.41414V12.5859C4.5 12.7185 4.55268 12.8456 4.64645 12.9394L5.06058 13.3536C5.15435 13.4473 5.28153 13.5 5.41414 13.5H10.5859C10.7185 13.5 10.8456 13.4473 10.9394 13.3536L11.3536 12.9394C11.4473 12.8456 11.5 12.7185 11.5 12.5859V5.41414C11.5 5.28153 11.4473 5.15435 11.3536 5.06058L10.9394 4.64645C10.8456 4.55268 10.7185 4.5 10.5859 4.5H5.41414C5.28153 4.5 5.15435 4.55268 5.06058 4.64645L4.64645 5.06058Z" fill="white" style="fill:white;fill-opacity:1;"/>
<path d="M25 3.58586C25 3.71847 25.0527 3.84565 25.1464 3.93942L25.5606 4.35355C25.6544 4.44732 25.7815 4.5 25.9141 4.5H27C27.2761 4.5 27.5 4.72386 27.5 5V6.5C27.5 6.77614 27.2761 7 27 7H25.5C25.2239 7 25 6.77614 25 6.5V5.41414C25 5.28153 24.9473 5.15435 24.8536 5.06058L24.4394 4.64645C24.3456 4.55268 24.2185 4.5 24.0859 4.5H18.9141C18.7815 4.5 18.6544 4.55268 18.5606 4.64645L18.1464 5.06058C18.0527 5.15435 18 5.28153 18 5.41414V6.83586C18 6.96847 18.0527 7.09565 18.1464 7.18942L18.5606 7.60355C18.6544 7.69732 18.7815 7.75 18.9141 7.75H24.5C24.7761 7.75 25 7.97386 25 8.25V9.33586C25 9.46847 25.0527 9.59565 25.1464 9.68942L25.5606 10.1036C25.6544 10.1973 25.7815 10.25 25.9141 10.25H27C27.2761 10.25 27.5 10.4739 27.5 10.75V13C27.5 13.2761 27.2761 13.5 27 13.5H25.9141C25.7815 13.5 25.6544 13.5527 25.5606 13.6464L25.1464 14.0606C25.0527 14.1544 25 14.2815 25 14.4141V15.5C25 15.7761 24.7761 16 24.5 16H18.5C18.2239 16 18 15.7761 18 15.5V14.4141C18 14.2815 17.9473 14.1544 17.8536 14.0606L17.4394 13.6464C17.3456 13.5527 17.2185 13.5 17.0859 13.5H16C15.7239 13.5 15.5 13.2761 15.5 13V11.5C15.5 11.2239 15.7239 11 16 11H17.5C17.7761 11 18 11.2239 18 11.5V12.5859C18 12.7185 18.0527 12.8456 18.1464 12.9394L18.5606 13.3536C18.6544 13.4473 18.7815 13.5 18.9141 13.5H24.0859C24.2185 13.5 24.3456 13.4473 24.4394 13.3536L24.8536 12.9394C24.9473 12.8456 25 12.7185 25 12.5859V11.1641C25 11.0315 24.9473 10.9044 24.8536 10.8106L24.4394 10.3964C24.3456 10.3027 24.2185 10.25 24.0859 10.25H18.5C18.2239 10.25 18 10.0261 18 9.75V8.66414C18 8.53153 17.9473 8.40435 17.8536 8.31058L17.4394 7.89645C17.3456 7.80268 17.2185 7.75 17.0859 7.75H16C15.7239 7.75 15.5 7.52614 15.5 7.25V5C15.5 4.72386 15.7239 4.5 16 4.5H17.0859C17.2185 4.5 17.3456 4.44732 17.4394 4.35355L17.8536 3.93942C17.9473 3.84565 18 3.71847 18 3.58586V2.5C18 2.22386 18.2239 2 18.5 2H24.5C24.7761 2 25 2.22386 25 2.5V3.58586Z" fill="white" style="fill:white;fill-opacity:1;"/>
<path d="M39.868 15.788C37.402 15.788 35.62 14.762 34.882 12.98C34.378 11.774 34.954 11.09 35.692 11.09C36.268 11.09 36.538 11.45 36.736 12.062C37.168 13.394 38.392 14.114 39.922 14.114C41.668 14.114 42.784 13.394 42.784 12.098C42.784 11.018 41.938 10.496 40.498 10.19L38.5 9.758C36.538 9.344 34.972 8.21 34.972 6.248C34.972 4.106 36.988 2.594 39.742 2.594C41.938 2.594 43.504 3.458 44.188 4.934C44.746 6.122 44.188 6.788 43.504 6.788C42.964 6.788 42.622 6.482 42.424 5.888C42.082 4.916 41.128 4.268 39.67 4.268C38.14 4.268 37.024 4.97 37.024 6.068C37.024 7.094 37.798 7.598 39.184 7.886L41.362 8.354C43.342 8.768 44.836 9.866 44.836 11.882C44.836 14.096 43.036 15.788 39.868 15.788ZM50.2473 15.788C47.6913 15.788 45.8733 14.114 45.8733 11.126C45.8733 8.282 47.8353 6.482 50.3553 6.482C52.1733 6.482 53.3613 7.364 53.9013 8.444C54.4053 9.452 53.9553 10.136 53.2353 10.136C52.7493 10.136 52.4613 9.83 52.2813 9.326C52.0293 8.534 51.3813 7.958 50.3373 7.958C48.8613 7.958 47.7993 9.218 47.7993 11.126C47.7993 13.034 48.8073 14.33 50.3193 14.33C51.4353 14.33 52.1013 13.736 52.3893 12.908C52.5513 12.404 52.8573 12.116 53.3253 12.116C53.9913 12.116 54.4413 12.71 54.0093 13.718C53.5053 14.87 52.2813 15.788 50.2473 15.788ZM56.5861 15.734C56.0101 15.734 55.6501 15.338 55.6501 14.654V7.616C55.6501 6.914 56.0101 6.536 56.5861 6.536C57.1801 6.536 57.5221 6.914 57.5221 7.616C57.5221 7.868 57.5221 8.084 57.4861 8.282C57.9361 7.292 58.8361 6.536 59.7721 6.536C60.0241 6.536 60.2581 6.608 60.4381 6.734C60.6361 6.878 60.7621 7.112 60.7621 7.4C60.7621 7.724 60.6541 7.958 60.4741 8.102C60.3121 8.228 60.0961 8.3 59.8261 8.3C58.5121 8.336 57.5221 9.092 57.5221 11.018V14.654C57.5221 15.338 57.1801 15.734 56.5861 15.734ZM62.6772 15.734C62.1012 15.734 61.7412 15.374 61.7412 14.654V7.562C61.7412 6.842 62.1012 6.482 62.6772 6.482C63.2712 6.482 63.6132 6.842 63.6132 7.562V14.654C63.6132 15.374 63.2712 15.734 62.6772 15.734ZM61.4532 4.25C61.4532 3.548 61.9932 3.008 62.6952 3.008C63.3792 3.008 63.9192 3.548 63.9192 4.25C63.9192 4.934 63.3792 5.474 62.6952 5.474C61.9932 5.474 61.4532 4.934 61.4532 4.25ZM70.3683 15.788C69.0183 15.788 68.0463 15.158 67.5243 14.294C67.5423 14.42 67.5423 14.564 67.5423 14.726C67.5423 15.356 67.2003 15.734 66.6243 15.734C66.0483 15.734 65.6883 15.338 65.6883 14.654V3.746C65.6883 3.044 66.0483 2.666 66.6243 2.666C67.2183 2.666 67.5603 3.044 67.5603 3.746V7.202C67.5603 7.472 67.5423 7.724 67.5243 7.976C68.0823 7.13 69.0363 6.482 70.3683 6.482C72.6723 6.482 74.3463 8.354 74.3463 11.144C74.3463 13.988 72.7263 15.788 70.3683 15.788ZM67.4703 11.144C67.4703 13.034 68.4963 14.33 69.9363 14.33C71.4123 14.33 72.4203 13.034 72.4203 11.144C72.4203 9.272 71.4303 7.958 69.9363 7.958C68.4963 7.958 67.4703 9.2 67.4703 11.144ZM79.7619 15.788C77.1519 15.788 75.4239 14.132 75.4239 11.108C75.4239 8.39 77.2239 6.482 79.6719 6.482C82.4979 6.482 83.5599 8.534 83.7399 10.19C83.8839 11.342 83.4519 11.54 82.7139 11.54H77.3139C77.3499 13.232 78.3579 14.33 79.7799 14.33C80.6439 14.33 81.3999 13.97 81.7239 13.178C81.9219 12.746 82.1919 12.476 82.6419 12.476C83.3259 12.476 83.7759 13.124 83.2719 14.042C82.7859 14.978 81.5799 15.788 79.7619 15.788ZM77.3319 10.208H81.8499C81.8499 8.84 81.0219 7.904 79.6719 7.904C78.3579 7.904 77.4579 8.894 77.3319 10.208Z" fill="#292524" style="fill:#292524;fill:color(display-p3 0.1608 0.1451 0.1412);fill-opacity:1;"/>
</g>
<defs>
<linearGradient id="paint0_linear_211_1023" x1="14.75" y1="0" x2="14.75" y2="18" gradientUnits="userSpaceOnUse">
<stop stop-color="#D6D3D1" style="stop-color:#D6D3D1;stop-color:color(display-p3 0.8392 0.8275 0.8196);stop-opacity:1;"/>
<stop offset="1" stop-color="#78716C" style="stop-color:#78716C;stop-color:color(display-p3 0.4706 0.4431 0.4235);stop-opacity:1;"/>
</linearGradient>
<clipPath id="clip0_211_1023">
<rect width="84" height="18" fill="white" style="fill:white;fill-opacity:1;"/>
</clipPath>
</defs>
</svg>
